<!--<svg width="511" height="511" viewBox="0 0 511 511" fill="none" xmlns="http://www.w3.org/2000/svg">-->
<!--<circle cx="255.5" cy="255.5" r="255.5" fill="url(#paint0_linear_615_28)"/>-->
<!--<defs>-->
<!--<linearGradient id="paint0_linear_615_28" x1="434.452" y1="427.308" x2="63.2796" y2="56.1352" gradientUnits="userSpaceOnUse">-->
<!--<stop stop-color="#C0C8D5"/>-->
<!--<stop offset="1" stop-color="#BDC6D2" stop-opacity="0"/>-->
<!--</linearGradient>-->
<!--</defs>-->
<!--</svg>-->

<!--?xml version="1.0" standalone="no"?-->
<svg width="151" height="151" id="sw-js-blob-svg" viewBox="0 0 100 100" xmlns="http://www.w3.org/2000/svg">
    <defs>
    <linearGradient id="sw-gradient" x1="0" x2="1" y1="0" y2="1">
        <stop id="stop1" stop-color="rgba(228, 228, 228, 0)" offset="0%"></stop>
        <stop id="stop2" stop-color="rgba(167, 197, 233, 1)" offset="100%"></stop>
    </linearGradient>
    </defs>
    <path fill="url(#sw-gradient)" d="M20.4,-22.5C28.2,-17.7,37.6,-13,40.3,-5.9C43.1,1.3,39.2,10.8,34.1,19.9C29.1,29.1,23,37.8,14.4,42.1C5.7,46.4,-5.5,46.2,-15.2,42.4C-24.9,38.6,-33,31.2,-36.3,22.4C-39.7,13.7,-38.2,3.6,-36.7,-6.7C-35.2,-17.1,-33.7,-27.7,-27.5,-32.7C-21.4,-37.8,-10.7,-37.3,-2.2,-34.7C6.3,-32.1,12.6,-27.3,20.4,-22.5Z" width="100%" height="100%" transform="translate(50 50)" stroke-width="0" style="transition: all 0.3s ease 0s;"></path>
</svg>
